<svg width="512" height="256" viewBox="0 0 512 256" xmlns="http://www.w3.org/2000/svg">
  <defs>
    <linearGradient id="waveGradient" x1="0%" y1="0%" x2="100%" y2="0%">
      <stop offset="0%" stop-color="#ffffff" stop-opacity="0.8"/>
      <stop offset="100%" stop-color="#ffffff" stop-opacity="0.4"/>
    </linearGradient>
  </defs>
  
  <!-- Ondes radio animées - courbes harmonieuses -->
  <g opacity="0.8">
    <!-- Première onde -->
    <path d="M 26,128 
             C 46,80 76,40 106,72 
             S 156,180 186,120 
             S 236,40 266,72 
             S 316,180 346,120 
             S 396,40 426,72 
             S 476,180 506,120" 
          stroke="url(#waveGradient)" stroke-width="6" fill="none" stroke-linecap="round">
    </path>
    
    <!-- Deuxième onde (plus petite) -->
    <path d="M 26,128 
             C 56,100 76,80 106,100 
             S 156,156 186,128 
             S 236,100 266,100 
             S 316,156 346,128 
             S 396,100 426,100 
             S 476,156 506,128" 
          stroke="url(#waveGradient)" stroke-width="4" fill="none" stroke-linecap="round">
    </path>
    
    <!-- Troisième onde (encore plus petite) -->
    <path d="M 26,128 
             C 66,120 76,116 106,120 
             S 156,136 186,128 
             S 236,120 266,120 
             S 316,136 346,128 
             S 396,120 426,120 
             S 476,136 506,128" 
          stroke="url(#waveGradient)" stroke-width="2" fill="none" stroke-linecap="round">
    </path>
  </g>
  
  <!-- Petits points/particules sur les ondes -->
  <g fill="#ffffff">
    <circle cx="106" cy="72" r="3" opacity="0.9"/>
    <circle cx="186" cy="120" r="3" opacity="0.9"/>
    <circle cx="266" cy="72" r="3" opacity="0.9"/>
    <circle cx="346" cy="120" r="3" opacity="0.9"/>
    <circle cx="426" cy="72" r="3" opacity="0.9"/>
    
    <circle cx="106" cy="100" r="2" opacity="0.7"/>
    <circle cx="186" cy="128" r="2" opacity="0.7"/>
    <circle cx="266" cy="100" r="2" opacity="0.7"/>
    <circle cx="346" cy="128" r="2" opacity="0.7"/>
    <circle cx="426" cy="100" r="2" opacity="0.7"/>
    
    <circle cx="106" cy="120" r="1" opacity="0.5"/>
    <circle cx="186" cy="128" r="1" opacity="0.5"/>
    <circle cx="266" cy="120" r="1" opacity="0.5"/>
    <circle cx="346" cy="128" r="1" opacity="0.5"/>
    <circle cx="426" cy="120" r="1" opacity="0.5"/>
  </g>
</svg>