<svg width="512" height="512" viewBox="0 0 512 512" xmlns="http://www.w3.org/2000/svg">
  <!-- Fond du logo - cercle avec dégradé -->
  <defs>
    <linearGradient id="bgGradient" x1="0%" y1="0%" x2="100%" y2="100%">
      <stop offset="0%" stop-color="#3a36e9"/>
      <stop offset="100%" stop-color="#b625de"/>
    </linearGradient>
    <!-- Dégradé pour l'effet de brillance -->
    <linearGradient id="shineGradient" x1="0%" y1="0%" x2="100%" y2="100%">
      <stop offset="0%" stop-color="#ffffff" stop-opacity="0.7"/>
      <stop offset="100%" stop-color="#ffffff" stop-opacity="0"/>
    </linearGradient>
    <!-- Filtre de lueur pour un effet lumineux -->
    <filter id="glow" x="-20%" y="-20%" width="140%" height="140%">
      <feGaussianBlur stdDeviation="10" result="blur"/>
      <feComposite in="SourceGraphic" in2="blur" operator="over"/>
    </filter>
  </defs>
  
  <!-- Cercle principal -->
  <circle cx="256" cy="256" r="230" fill="url(#bgGradient)" filter="url(#glow)"/>
  
  <!-- Effet de brillance -->
  <ellipse cx="180" cy="150" rx="160" ry="100" fill="url(#shineGradient)" opacity="0.4" transform="rotate(-20, 180, 150)"/>
  
  <!-- Radio - élément central -->
  <g transform="translate(110, 130) scale(0.9)">
    <!-- Boîtier de la radio -->
    <rect x="20" y="50" width="280" height="180" rx="15" ry="15" fill="#222222" stroke="#444444" stroke-width="4"/>
    
    <!-- Haut-parleur -->
    <g>
      <!-- Grille du haut-parleur -->
      <circle cx="160" cy="140" r="70" fill="#333333" stroke="#444444" stroke-width="2"/>
      
      <!-- Lignes de la grille -->
      <g stroke="#555555" stroke-width="1.5">
        <circle cx="160" cy="140" r="30" fill="none"/>
        <circle cx="160" cy="140" r="50" fill="none"/>
        <circle cx="160" cy="140" r="60" fill="none"/>
        
        <!-- Lignes radiales -->
        <line x1="90" y1="140" x2="230" y2="140" />
        <line x1="160" y1="70" x2="160" y2="210" />
        <line x1="110" y1="90" x2="210" y2="190" />
        <line x1="110" y1="190" x2="210" y2="90" />
      </g>
      
      <!-- Centre du haut-parleur -->
      <circle cx="160" cy="140" r="15" fill="#222222" stroke="#444444" stroke-width="2"/>
    </g>
    
    <!-- Affichage numérique -->
    <rect x="40" y="70" width="90" height="30" rx="3" ry="3" fill="#338844"/>
    <text x="60" y="92" font-family="monospace" font-size="18" fill="#88ffaa">87.5</text>
    
    <!-- Boutons de contrôle -->
    <circle cx="60" cy="190" r="12" fill="#d42a2a" stroke="#444444" stroke-width="1"/>
    <circle cx="100" cy="190" r="12" fill="#4a90e2" stroke="#444444" stroke-width="1"/>
    <rect x="230" y="180" width="50" height="20" rx="5" ry="5" fill="#666666" stroke="#444444" stroke-width="1"/>
    
    <!-- Antenne -->
    <line x1="270" y1="50" x2="270" y2="0" stroke="#666666" stroke-width="3"/>
    <circle cx="270" cy="0" r="5" fill="#999999"/>
  </g>
  
  <!-- Ondes radio (effet visuel) -->
  <g stroke="#ffffff" stroke-width="3" fill="none" opacity="0.8">
    <path d="M 120,90 C 140,50 220,30 280,80" />
    <path d="M 130,70 C 160,20 250,10 300,70" stroke-width="2" opacity="0.6"/>
    <path d="M 110,110 C 130,70 210,50 270,100" stroke-width="4"/>
  </g>
</svg>
